<?xml version="1.0" encoding="UTF-8"?>
<svg id="Layer_1" data-name="Layer 1" xmlns="http://www.w3.org/2000/svg" xmlns:xlink="http://www.w3.org/1999/xlink" viewBox="0 0 242.65 232.43">
  <defs>
    <style>
      .cls-1 {
        fill: #fff;
      }

      .cls-2 {
        fill: url(#linear-gradient);
      }
    </style>
    <linearGradient id="linear-gradient" x1="53.59" y1="91.22" x2="187.47" y2="91.22" gradientUnits="userSpaceOnUse">
      <stop offset=".22" stop-color="#fff"/>
      <stop offset="1" stop-color="#ccc"/>
    </linearGradient>
  </defs>
  <path class="cls-1" d="m55.18,178.43v-18.03c0-3.07,1.44-5.96,3.89-7.81l31.86-24.04,42.76-32.37c3.63-2.75,8.67-2.63,12.17.28l5.38,4.48,34.29,28.56c2.23,1.86,3.52,4.61,3.52,7.52v32.17c0,8.32-9.72,12.84-16.08,7.49l-29.88-25.16c-3.53-2.97-8.66-3.07-12.31-.24l-44.85,34.87c-1.72,1.34-3.83,2.06-6.01,2.06h-14.96c-5.4,0-9.78-4.38-9.78-9.78Z"/>
  <path class="cls-2" d="m187.47,54v18.03c0,3.07-1.44,5.96-3.89,7.81l-31.86,24.04-42.76,32.37c-3.63,2.75-8.67,2.63-12.17-.28l-5.38-4.48-34.29-28.56c-2.23-1.86-3.52-4.61-3.52-7.52v-32.17c0-8.32,9.72-12.84,16.08-7.49l29.88,25.16c3.53,2.97,8.66,3.07,12.31.24l44.85-34.87c1.72-1.34,3.83-2.06,6.01-2.06h14.96c5.4,0,9.78,4.38,9.78,9.78Z"/>
</svg>