<?xml version="1.0" encoding="UTF-8"?>
<svg id="Layer_1" data-name="Layer 1" xmlns="http://www.w3.org/2000/svg" xmlns:xlink="http://www.w3.org/1999/xlink" viewBox="0 0 242.65 232.43">
  <defs>
    <style>
      .cls-1 {
        fill: #a7d8ff;
      }

      .cls-2 {
        fill: url(#linear-gradient);
      }
    </style>
    <linearGradient id="linear-gradient" x1="56.04" y1="144.07" x2="186.6" y2="144.07" gradientUnits="userSpaceOnUse">
      <stop offset="0" stop-color="#8bd2ff"/>
      <stop offset="1" stop-color="#d19ff5"/>
    </linearGradient>
  </defs>
  <path class="cls-2" d="m56.04,180.38v-17.59c0-2.99,1.41-5.81,3.8-7.62l31.07-23.44,41.7-31.57c3.54-2.68,8.46-2.56,11.87.28l5.25,4.37,33.44,27.85c2.18,1.81,3.44,4.5,3.44,7.33v31.37c0,8.11-9.48,12.52-15.69,7.3l-29.14-24.53c-3.44-2.9-8.45-3-12-.23l-43.74,34.01c-1.67,1.3-3.74,2.01-5.86,2.01h-14.59c-5.27,0-9.54-4.27-9.54-9.54Z"/>
  <path class="cls-1" d="m186.6,59.03v17.59c0,2.99-1.41,5.81-3.8,7.62l-31.07,23.44-41.7,31.57c-3.54,2.68-8.46,2.56-11.87-.28l-5.25-4.37-33.44-27.85c-2.18-1.81-3.44-4.5-3.44-7.33v-31.37c0-8.11,9.48-12.52,15.69-7.3l29.14,24.53c3.44,2.9,8.45,3,12,.23l43.74-34.01c1.67-1.3,3.74-2.01,5.86-2.01h14.59c5.27,0,9.54,4.27,9.54,9.54Z"/>
</svg>