<?xml version="1.0" encoding="UTF-8"?>
<svg id="Layer_1" data-name="Layer 1" xmlns="http://www.w3.org/2000/svg" viewBox="0 0 413.86 232.43">
  <path d="m20.09,148v-9.21c0-1.57.74-3.05,1.99-3.99l16.28-12.28,21.84-16.54c1.85-1.4,4.43-1.34,6.22.15l2.75,2.29,17.52,14.59c1.14.95,1.8,2.36,1.8,3.84v16.43c0,4.25-4.97,6.56-8.22,3.82l-15.27-12.85c-1.8-1.52-4.43-1.57-6.29-.12l-22.91,17.82c-.88.68-1.96,1.05-3.07,1.05h-7.64c-2.76,0-5-2.24-5-5Z"/>
  <path d="m87.67,84.43v9.21c0,1.57-.74,3.05-1.99,3.99l-16.28,12.28-21.84,16.54c-1.85,1.4-4.43,1.34-6.22-.15l-2.75-2.29-17.52-14.59c-1.14-.95-1.8-2.36-1.8-3.84v-16.43c0-4.25,4.97-6.56,8.22-3.82l15.27,12.85c1.8,1.52,4.43,1.57,6.29.12l22.91-17.82c.88-.68,1.96-1.05,3.07-1.05h7.64c2.76,0,5,2.24,5,5Z"/>
  <g>
    <path d="m140.43,91.45v7.95h-13.28v37.55h-8.02v-37.55h-13.28v-7.95h34.58Z"/>
    <path d="m168.75,101.36c8.43,0,12,4.05,12,10.92s-3.3,10.25-12.07,10.25h-16.92v2.56c0,2.83,1.55,4.92,5.46,4.92h21.77v6.94h-21.77c-8.9,0-12.4-4.99-12.4-11.73v-12.13c0-6.74,3.51-11.73,12.4-11.73h11.53Zm-16.99,15.57h16.72c3.84,0,5.26-1.62,5.26-4.25s-1.55-4.45-5.06-4.45h-11.46c-3.91,0-5.46,2.16-5.46,4.92v3.78Z"/>
    <path d="m196.66,85.93v30.2h3.3c5.66,0,6.81-.27,8.9-4.04l5.93-10.72h7.75l-6.2,11.19c-1.75,3.17-3.44,5.12-6.34,6.34,3.37.94,5.12,3.17,7.28,6.88l6.4,11.19h-8.02l-5.93-10.52c-2.09-3.71-3.51-4.31-9.77-4.31h-3.3v14.83h-7.15v-51.03h7.15Z"/>
    <path d="m231.37,101.36v-8.43h7.21v8.43h9.84v6.88h-9.84v16.85c0,3.98,1.42,5.33,4.79,5.33h4.92v6.54h-6.4c-7.35,0-10.52-2.97-10.52-12.27v-16.45h-4.85v-6.88h4.85Z"/>
    <path d="m276.61,101.36c9.44,0,15.44,5.8,15.44,17.8s-6,17.8-15.44,17.8h-7.48c-9.51,0-15.44-5.8-15.44-17.8s5.93-17.8,15.44-17.8h7.48Zm-6.81,6.88c-6.2,0-8.9,3.24-8.9,10.92s2.7,10.85,8.9,10.85h6.13c6.13,0,8.9-3.17,8.9-10.85s-2.76-10.92-8.9-10.92h-6.13Z"/>
    <path d="m320.29,101.36c12.07,0,17.93,5.73,17.93,15.57v20.02h-7.21v-20.02c0-5.6-3.24-8.7-10.72-8.7h-11.66c-.61,0-.88.34-.88,1.01v27.71h-7.15v-30.07c0-4.18,1.42-5.53,4.99-5.53h14.7Z"/>
    <path d="m356.02,91.45l13.95,16.79,14.63-16.79h9.84l-19.48,22.38,19.62,23.12h-9.71l-15.1-18.07-15.51,18.07h-9.84l20.36-23.73-18.47-21.77h9.71Z"/>
  </g>
</svg>