<?xml version="1.0" encoding="UTF-8"?>
<svg id="Layer_1" data-name="Layer 1" xmlns="http://www.w3.org/2000/svg" viewBox="0 0 413.86 232.43">
  <path d="m150.33,129.28v-15.25c0-2.6,1.22-5.04,3.29-6.6l26.94-20.32,36.15-27.37c3.07-2.32,7.33-2.22,10.29.24l4.55,3.79,29,24.15c1.89,1.57,2.98,3.9,2.98,6.36v27.2c0,7.03-8.22,10.86-13.6,6.33l-25.27-21.27c-2.99-2.51-7.32-2.6-10.41-.2l-37.92,29.49c-1.45,1.13-3.24,1.74-5.08,1.74h-12.65c-4.57,0-8.27-3.7-8.27-8.27Z"/>
  <path d="m263.53,24.07v15.25c0,2.6-1.22,5.04-3.29,6.6l-26.94,20.32-36.15,27.37c-3.07,2.32-7.33,2.22-10.29-.24l-4.55-3.79-29-24.15c-1.89-1.57-2.98-3.9-2.98-6.36v-27.2c0-7.03,8.22-10.86,13.6-6.33l25.27,21.27c2.99,2.51,7.32,2.6,10.41.2l37.92-29.49c1.45-1.13,3.24-1.74,5.08-1.74h12.65c4.57,0,8.27,3.7,8.27,8.27Z"/>
  <g>
    <path d="m74.91,161.92v9.57h-15.97v45.15h-9.65v-45.15h-15.97v-9.57h41.59Z"/>
    <path d="m108.96,173.83c10.13,0,14.43,4.86,14.43,13.13s-3.97,12.32-14.51,12.32h-20.35v3.08c0,3.4,1.86,5.92,6.57,5.92h26.18v8.35h-26.18c-10.7,0-14.92-6-14.92-14.11v-14.59c0-8.11,4.22-14.11,14.92-14.11h13.86Zm-20.43,18.73h20.1c4.62,0,6.32-1.95,6.32-5.11s-1.86-5.35-6.08-5.35h-13.78c-4.7,0-6.57,2.59-6.57,5.92v4.54Z"/>
    <path d="m142.52,155.27v36.32h3.97c6.81,0,8.19-.32,10.7-4.86l7.13-12.89h9.32l-7.46,13.46c-2.11,3.81-4.13,6.16-7.62,7.62,4.05,1.14,6.16,3.81,8.76,8.27l7.7,13.46h-9.65l-7.13-12.65c-2.51-4.46-4.22-5.19-11.75-5.19h-3.97v17.83h-8.59v-61.37h8.59Z"/>
    <path d="m184.27,173.83v-10.13h8.67v10.13h11.84v8.27h-11.84v20.27c0,4.78,1.7,6.4,5.76,6.4h5.92v7.86h-7.7c-8.84,0-12.65-3.57-12.65-14.75v-19.78h-5.84v-8.27h5.84Z"/>
    <path d="m238.67,173.83c11.35,0,18.56,6.97,18.56,21.4s-7.21,21.4-18.56,21.4h-9c-11.43,0-18.56-6.97-18.56-21.4s7.13-21.4,18.56-21.4h9Zm-8.19,8.27c-7.46,0-10.7,3.89-10.7,13.13s3.24,13.05,10.7,13.05h7.38c7.38,0,10.7-3.81,10.7-13.05s-3.32-13.13-10.7-13.13h-7.38Z"/>
    <path d="m291.2,173.83c14.51,0,21.56,6.89,21.56,18.73v24.08h-8.67v-24.08c0-6.73-3.89-10.46-12.89-10.46h-14.02c-.73,0-1.05.41-1.05,1.22v33.32h-8.59v-36.16c0-5.03,1.7-6.65,6-6.65h17.67Z"/>
    <path d="m334.16,161.92l16.78,20.19,17.59-20.19h11.84l-23.43,26.91,23.59,27.81h-11.67l-18.16-21.73-18.64,21.73h-11.84l24.48-28.53-22.21-26.18h11.67Z"/>
  </g>
</svg>