<?xml version="1.0" encoding="UTF-8"?>
<svg id="Layer_1" data-name="Layer 1" xmlns="http://www.w3.org/2000/svg" xmlns:xlink="http://www.w3.org/1999/xlink" viewBox="0 0 242.65 232.43">
  <defs>
    <style>
      .cls-1 {
        fill: url(#linear-gradient);
      }

      .cls-2 {
        fill: #670eb3;
      }
    </style>
    <linearGradient id="linear-gradient" x1="57.28" y1="140.41" x2="186.91" y2="140.41" gradientUnits="userSpaceOnUse">
      <stop offset="0" stop-color="#670eb3"/>
      <stop offset="1" stop-color="#3b0970"/>
    </linearGradient>
  </defs>
  <path class="cls-1" d="m57.28,176.46v-17.46c0-2.97,1.4-5.77,3.77-7.56l30.85-23.27,41.4-31.35c3.51-2.66,8.4-2.55,11.78.27l5.21,4.34,33.2,27.65c2.16,1.8,3.41,4.47,3.41,7.28v31.15c0,8.05-9.41,12.43-15.57,7.25l-28.93-24.36c-3.42-2.88-8.39-2.98-11.92-.23l-43.42,33.77c-1.66,1.29-3.71,1.99-5.82,1.99h-14.49c-5.23,0-9.47-4.24-9.47-9.47Z"/>
  <path class="cls-2" d="m185.37,55.97v17.46c0,2.97-1.4,5.77-3.77,7.56l-30.85,23.27-41.4,31.35c-3.51,2.66-8.4,2.55-11.78-.27l-5.21-4.34-33.2-27.65c-2.16-1.8-3.41-4.47-3.41-7.28v-31.15c0-8.05,9.41-12.43,15.57-7.25l28.93,24.36c3.42,2.88,8.39,2.98,11.92.23l43.42-33.77c1.66-1.29,3.71-1.99,5.82-1.99h14.49c5.23,0,9.47,4.24,9.47,9.47Z"/>
</svg>