<?xml version="1.0" encoding="UTF-8"?>
<svg id="Layer_1" data-name="Layer 1" xmlns="http://www.w3.org/2000/svg" xmlns:xlink="http://www.w3.org/1999/xlink" viewBox="0 0 413.86 232.43">
  <defs>
    <style>
      .cls-1 {
        fill: #fff;
      }

      .cls-2 {
        fill: url(#linear-gradient);
      }
    </style>
    <linearGradient id="linear-gradient" x1="20.25" y1="103.51" x2="88.29" y2="103.51" gradientUnits="userSpaceOnUse">
      <stop offset=".22" stop-color="#fff"/>
      <stop offset="1" stop-color="#ccc"/>
    </linearGradient>
  </defs>
  <path class="cls-1" d="m21.06,147.84v-9.16c0-1.56.73-3.03,1.98-3.97l16.19-12.22,21.73-16.45c1.84-1.4,4.41-1.34,6.18.14l2.73,2.28,17.43,14.52c1.13.94,1.79,2.34,1.79,3.82v16.35c0,4.23-4.94,6.53-8.17,3.8l-15.19-12.78c-1.8-1.51-4.4-1.56-6.25-.12l-22.79,17.72c-.87.68-1.95,1.05-3.05,1.05h-7.6c-2.75,0-4.97-2.23-4.97-4.97Z"/>
  <path class="cls-2" d="m88.29,84.59v9.16c0,1.56-.73,3.03-1.98,3.97l-16.19,12.22-21.73,16.45c-1.84,1.4-4.41,1.34-6.18-.14l-2.73-2.28-17.43-14.52c-1.13-.94-1.79-2.34-1.79-3.82v-16.35c0-4.23,4.94-6.53,8.17-3.8l15.19,12.78c1.8,1.51,4.4,1.56,6.25.12l22.79-17.72c.87-.68,1.95-1.05,3.05-1.05h7.6c2.75,0,4.97,2.23,4.97,4.97Z"/>
  <g>
    <path class="cls-1" d="m140.78,91.58v7.91h-13.21v37.35h-7.98v-37.35h-13.21v-7.91h34.4Z"/>
    <path class="cls-1" d="m168.94,101.44c8.38,0,11.94,4.02,11.94,10.86s-3.29,10.19-12,10.19h-16.83v2.55c0,2.82,1.54,4.9,5.43,4.9h21.66v6.91h-21.66c-8.85,0-12.34-4.96-12.34-11.67v-12.07c0-6.71,3.49-11.67,12.34-11.67h11.47Zm-16.9,15.49h16.63c3.82,0,5.23-1.61,5.23-4.23s-1.54-4.43-5.03-4.43h-11.4c-3.89,0-5.43,2.15-5.43,4.9v3.76Z"/>
    <path class="cls-1" d="m196.71,86.08v30.04h3.29c5.63,0,6.77-.27,8.85-4.02l5.9-10.66h7.71l-6.17,11.13c-1.74,3.15-3.42,5.1-6.3,6.3,3.35.94,5.1,3.15,7.24,6.84l6.37,11.13h-7.98l-5.9-10.46c-2.08-3.69-3.49-4.29-9.72-4.29h-3.29v14.75h-7.11v-50.77h7.11Z"/>
    <path class="cls-1" d="m231.25,101.44v-8.38h7.18v8.38h9.79v6.84h-9.79v16.77c0,3.96,1.41,5.3,4.76,5.3h4.9v6.51h-6.37c-7.31,0-10.46-2.95-10.46-12.21v-16.36h-4.83v-6.84h4.83Z"/>
    <path class="cls-1" d="m276.25,101.44c9.39,0,15.36,5.77,15.36,17.71s-5.97,17.71-15.36,17.71h-7.44c-9.46,0-15.36-5.77-15.36-17.71s5.9-17.71,15.36-17.71h7.44Zm-6.77,6.84c-6.17,0-8.85,3.22-8.85,10.86s2.68,10.8,8.85,10.8h6.1c6.1,0,8.85-3.15,8.85-10.8s-2.75-10.86-8.85-10.86h-6.1Z"/>
    <path class="cls-1" d="m319.71,101.44c12,0,17.84,5.7,17.84,15.49v19.92h-7.18v-19.92c0-5.57-3.22-8.65-10.66-8.65h-11.6c-.6,0-.87.34-.87,1.01v27.56h-7.11v-29.91c0-4.16,1.41-5.5,4.96-5.5h14.62Z"/>
    <path class="cls-1" d="m355.25,91.58l13.88,16.7,14.55-16.7h9.79l-19.38,22.27,19.52,23h-9.66l-15.02-17.97-15.42,17.97h-9.79l20.25-23.61-18.38-21.66h9.66Z"/>
  </g>
</svg>